<svg xmlns="http://www.w3.org/2000/svg" width="422.06" height="422.062" viewBox="0 0 422.06 422.062">
  <defs>
    <style>
      .cls-1 {
        fill: #fff;
        fill-rule: evenodd;
        opacity: 0.5;
        mix-blend-mode: overlay;
      }
    </style>
  </defs>
  <path id="compass" class="cls-1" d="M1085.02,714.047C968.479,714.047,874,619.569,874,503.023S968.479,292,1085.02,292s211.03,94.478,211.03,211.023S1201.57,714.047,1085.02,714.047Zm1.48-369.924a158.733,158.733,0,1,0,158.74,158.733A158.733,158.733,0,0,0,1086.5,344.123ZM994.6,595.177l51.952-132.258,131.02-51.951L1124.38,541.99Zm90.812-118.139a26.375,26.375,0,1,1-26.37,26.374A26.377,26.377,0,0,1,1085.41,477.038Z" transform="translate(-874 -292)"/>
</svg>
