<svg xmlns="http://www.w3.org/2000/svg" viewBox="0 0 480.03 480.02"><defs><style>.cls-1{fill:#fff;stroke:#000;stroke-miterlimit:10;stroke-width:15px;}</style></defs><title>Element 2</title><g id="Ebene_2" data-name="Ebene 2"><g id="Ebene_1-2" data-name="Ebene 1"><g id="Outline"><path d="M480,240a24,24,0,0,0-19.89-23.59l1.69-9.9a56.8,56.8,0,0,0-46.34-65.61c-.67-.12-1.35-.22-2-.31A201.26,201.26,0,0,0,359.86,80l.62-4.8A56.22,56.22,0,0,0,301,11.88l-14.4,1a8,8,0,1,0,1.06,16l14.4-1a40.15,40.15,0,0,1,42.76,37.36,39.74,39.74,0,0,1,0,4.5A198.79,198.79,0,0,0,264,41.5V24A23.92,23.92,0,0,0,218.88,12.9l-.85-.09A59.07,59.07,0,0,0,159.63,40l-2.74,4.38a42.88,42.88,0,0,1-47,18.87L109,63A57,57,0,0,0,54.43,78.3L53,79.75a149.94,149.94,0,0,0-42,129L12.6,219a23.79,23.79,0,0,0,.3,42.14l-1,6.75a57.61,57.61,0,0,0,48.84,65.2c.82.12,1.63.22,2.45.3a201.39,201.39,0,0,0,81.9,82.6,57.58,57.58,0,0,0,12,25.55,56.66,56.66,0,0,0,44.18,21.16A59,59,0,0,0,213,461.54l3.47-.68a23.94,23.94,0,0,0,47.13-1.21L305.5,466a141.94,141.94,0,0,0,21.3,1.6A145.69,145.69,0,0,0,453.2,393.7l.9-1.6a139,139,0,0,0,14.25-99.92l-6.73-28.91A24,24,0,0,0,480,240Zm-43.84-70.4a40.5,40.5,0,0,1,9.87,34.22L444,216h-5.44a198.68,198.68,0,0,0-15.24-56A40.82,40.82,0,0,1,436.19,169.61ZM424,240a184.76,184.76,0,0,1-4.35,39.85l-54.19-14.52a126.12,126.12,0,0,0-.05-50.65l54.2-14.52A183.47,183.47,0,0,1,424,240ZM327.4,170A110.74,110.74,0,0,1,352,240a112.3,112.3,0,1,1-46.3-90.56,8,8,0,0,0,9.72-12.71l-.31-.23a128,128,0,0,0-34.31-17.77l14.53-54.23a183.49,183.49,0,0,1,47.41,22.91L342,93.18a56,56,0,0,0,59.2,63l1.6-.1h.92a183.9,183.9,0,0,1,11.82,28.61l-54.21,14.49A127.61,127.61,0,0,0,339.88,160a8,8,0,0,0-12.48,10h0ZM240,424a184.09,184.09,0,0,1-39.84-4.39l14.51-54.15a127.87,127.87,0,0,0,50.67,0l14.53,54.22A186.25,186.25,0,0,1,240,424ZM163.3,389a56.85,56.85,0,0,0-1.6-48,127.63,127.63,0,0,0,37.55,20.21L184.7,415.5A182.65,182.65,0,0,1,160,405.67,41.92,41.92,0,0,1,163.3,389ZM56,240a184.73,184.73,0,0,1,4.41-39.84l54.14,14.5a127.13,127.13,0,0,0,0,50.67L60.42,279.85A184.09,184.09,0,0,1,56,240Zm8.51,55.3,54.26-14.5a127.8,127.8,0,0,0,18.4,35.09,56.87,56.87,0,0,0-47.37-3.07l-6.12,2.3a42.18,42.18,0,0,1-10.45,2.46,181.73,181.73,0,0,1-8.72-22.28ZM240,56a183.47,183.47,0,0,1,39.84,4.39l-14.53,54.23A126.49,126.49,0,0,0,240,112a128.24,128.24,0,0,0-25.33,2.53L200.19,60.4A183.47,183.47,0,0,1,240,56Zm154.45,84.17a39.82,39.82,0,0,1-36.86-41.6A185.51,185.51,0,0,1,394.48,140.18ZM240,16a8,8,0,0,1,8,8v16.2c-2.65-.11-5.32-.2-8-.2s-5.33.11-8,.21V24A8,8,0,0,1,240,16ZM173.22,48.42a43,43,0,0,1,42.55-19.8H216V41.51a199.25,199.25,0,0,0-45.39,11ZM64.29,91.06l1.45-1.44a41.1,41.1,0,0,1,39.41-11.11l.92.23a59.39,59.39,0,0,0,13.67,1.6,199.67,199.67,0,0,0-30.11,27.93,8,8,0,0,0,12,10.55,184.25,184.25,0,0,1,83.1-54.24l14.53,54.2a128.45,128.45,0,0,0-80.46,80.43L64.62,184.73a183.35,183.35,0,0,1,18.77-41.26,8,8,0,1,0-13.29-8.91l-.31.5A199.18,199.18,0,0,0,41.57,216H28.34l-1.53-9.78A133.93,133.93,0,0,1,64.29,91.06ZM40.23,248H24a8,8,0,1,1,0-16H40.31c-.11,2.66-.28,5.33-.28,8S40.13,245.35,40.23,248ZM43,308.56a41.33,41.33,0,0,1-15.15-38.4l.88-6.15h12.8a198.36,198.36,0,0,0,13.22,51.2A41.89,41.89,0,0,1,43,308.56ZM81,332.45a59.27,59.27,0,0,0,8.27-2.4l6.11-2.3a41.67,41.67,0,0,1,53.11,55,59.49,59.49,0,0,0-3.95,14.4A185.35,185.35,0,0,1,81,332.45ZM209.93,445.86a41,41,0,0,1-40.39-14.4,42.39,42.39,0,0,1-4-5.86A198.48,198.48,0,0,0,216,438.52v6.13ZM240,464a8,8,0,0,1-8-8v-16.2c2.66.1,5.32.2,8,.2s5.34-.11,8-.21V456A8,8,0,0,1,240,464Zm200.18-79.75-.91,1.6a129.37,129.37,0,0,1-131.36,64.29L264,443.53v-5a200.89,200.89,0,0,0,122-61.82,8,8,0,1,0-11.68-10.93h0a182.83,182.83,0,0,1-78.94,49.87l-14.58-54.4a128.46,128.46,0,0,0,80.47-80.4l54.23,14.53a183.23,183.23,0,0,1-22.12,46.4,8,8,0,1,0,13.33,8.85A198.72,198.72,0,0,0,438.47,264h6.94l7.41,31.8a122.92,122.92,0,0,1-12.61,88.45ZM456,248H439.74c.11-2.67.29-5.32.29-8s-.09-5.35-.2-8H456a8,8,0,0,1,0,16Z"/></g><path class="cls-1" d="M406.06,359.44,283,236.37,405.24,114.11a33.44,33.44,0,0,0,0-47.31h0a33.44,33.44,0,0,0-47.31,0L235.67,189.05,113.42,66.8a33.45,33.45,0,0,0-47.32,0h0a33.46,33.46,0,0,0,0,47.31L188.36,236.37,65.28,359.44a33.47,33.47,0,0,0,0,47.32h0a33.47,33.47,0,0,0,47.32,0L235.67,283.68,358.75,406.76a33.46,33.46,0,0,0,47.31,0h0A33.45,33.45,0,0,0,406.06,359.44Z"/></g></g></svg>